<?xml version="1.0" encoding="UTF-8"?>
<svg xmlns="http://www.w3.org/2000/svg" width="49" height="48" viewBox="0 0 49 48" fill="none">
  <g clip-path="url(#clip0_219_320)">
    <mask id="path-1-outside-1_219_320" maskUnits="userSpaceOnUse" x="9" y="1" width="30" height="46" fill="black">
      <rect fill="white" x="9" y="1" width="30" height="46"></rect>
      <path d="M33.4624 13.8366C33.4624 13.8328 33.4624 13.8293 33.463 13.8257C32.4877 13.0832 31.5794 12.3203 30.6711 11.5574C27.4321 8.8373 24.1935 6.11695 17.8871 4.3765C17.0462 4.14448 15.8435 3.83061 14.6217 3.5503C13.7158 3.34242 12.8069 3.15428 12.0397 3.03385C11.852 3.0044 11.7243 2.83333 11.7548 2.65166C11.7852 2.47029 11.9623 2.34692 12.1503 2.37636C12.951 2.50209 13.8733 2.6923 14.7807 2.90047C16.009 3.18225 17.2241 3.49936 18.0757 3.73433C24.5268 5.51482 27.8243 8.28434 31.1214 11.0536C33.1184 12.7307 35.1154 14.4081 37.8211 15.8515C37.9881 15.9401 38.049 16.1427 37.9573 16.3041C37.8656 16.4654 37.656 16.5243 37.489 16.4357C37.0128 16.1816 36.5581 15.9207 36.1221 15.6545L35.7973 17.2898L35.7958 17.299C35.655 18.0622 35.5642 18.6887 35.4865 19.2276C35.1486 21.5651 35.0325 22.3663 32.7326 23.5632C32.612 24.2231 32.5221 24.829 32.4368 25.4053C32.1735 27.1831 31.9508 28.6856 31.0044 30.6496C30.5425 31.6086 29.288 32.8794 27.8678 34.1723C28.9029 40.8208 32.4237 42.5586 36.6758 44.6559L36.7876 44.7109C36.9576 44.7946 37.0252 44.9954 36.9387 45.1597C36.8522 45.324 36.6444 45.3893 36.4743 45.3057L36.3625 45.2506C32.0321 43.1148 28.4306 41.3375 27.2593 34.719C26.7654 35.1581 26.2627 35.595 25.7755 36.0187C25.1636 36.5505 24.5759 37.0613 24.1258 37.468C23.3915 38.1319 22.6496 38.6051 21.8619 38.9272C21.0731 39.2499 20.2443 39.4201 19.3366 39.4775C19.1464 39.489 18.9828 39.3494 18.9709 39.1657C18.9591 38.982 19.1035 38.8239 19.2936 38.8124C20.127 38.7594 20.8829 38.6057 21.595 38.3142C22.3086 38.0221 22.9841 37.5907 23.6566 36.9827C24.2035 36.4883 24.7477 36.0152 25.3142 35.5229C25.9546 34.9661 26.6228 34.3854 27.2587 33.8107C27.2627 33.8069 27.2667 33.8033 27.2709 33.7998C28.6902 32.5163 29.9474 31.2623 30.3782 30.3675C31.2829 28.4901 31.4986 27.0341 31.754 25.311C31.9008 24.3196 32.0605 23.2417 32.3688 21.9417C32.7314 20.413 32.9801 19.1861 33.1498 17.9459C33.3201 16.7016 33.4124 15.4372 33.4624 13.836V13.8366ZM19.7744 45.6676C19.7744 45.8513 19.6202 46 19.4304 46C19.2406 46 19.0864 45.851 19.0864 45.6676L19.0895 41.1444C19.0895 40.9606 19.2436 40.8119 19.4335 40.8119C19.6233 40.8119 19.7775 40.9609 19.7775 41.1444L19.7744 45.6676ZM19.0745 2.40904C18.96 2.37754 18.8935 2.26212 18.9261 2.15141C18.9587 2.0407 19.0782 1.97651 19.1928 2.00801C21.8525 2.74206 23.9774 3.64776 25.7895 4.65387C27.6015 5.65998 29.0936 6.76266 30.4925 7.89361C30.5839 7.96752 30.5958 8.09884 30.5196 8.18717C30.4431 8.27551 30.3072 8.28699 30.2158 8.21338C28.8307 7.09332 27.3559 6.0033 25.5753 5.01427C23.7946 4.02553 21.7013 3.13396 19.0748 2.40904H19.0745ZM13.2076 38.6884C13.3977 38.6884 13.5516 38.8374 13.5516 39.0208C13.5516 39.2043 13.3974 39.3533 13.2076 39.3533L10.5567 39.3503C10.3666 39.3503 10.2127 39.2013 10.2127 39.0179C10.2127 38.8345 10.3669 38.6855 10.5567 38.6855L11.5503 38.6866L11.5512 33.4476C11.2182 33.4312 10.9068 33.3808 10.6429 33.2418C10.2526 33.0363 10.0046 32.6753 10.0043 32.0323L10.0012 14.7082H10C10 13.5819 10.0841 12.6992 10.3327 12.0841C10.5741 11.4876 10.9546 11.1322 11.5311 11.04L11.5342 6.60955C11.5342 6.42582 11.6883 6.27713 11.8782 6.27713C12.068 6.27713 12.2222 6.42611 12.2222 6.60955L12.2191 11.0397C12.8724 11.1319 13.26 11.492 13.4882 12.1035C13.7176 12.7192 13.76 13.5875 13.76 14.7079H13.7588L13.7557 32.032C13.7557 32.675 13.5074 33.036 13.1171 33.2415C12.8614 33.3761 12.561 33.4276 12.2395 33.4456L12.2386 38.6869L13.2076 38.6881V38.6884ZM13.0689 21.6585L12.2414 21.6576L12.2392 32.7775C12.4568 32.7637 12.6481 32.7307 12.7874 32.6574C12.9583 32.5673 13.0668 32.3841 13.0671 32.032L13.0689 21.6585ZM11.5534 21.6567L10.6908 21.6558L10.6926 32.032C10.6926 32.3841 10.8014 32.5673 10.9723 32.6574C11.1182 32.7342 11.3212 32.7666 11.5515 32.7793L11.5537 21.6567H11.5534ZM10.6904 20.9904L13.0692 20.993L13.0704 14.7076H13.0692C13.0692 13.652 13.0336 12.8452 12.8404 12.3276C12.6829 11.9051 12.3955 11.6843 11.8785 11.6807H11.8745C11.4306 11.674 11.1487 11.8968 10.975 12.3261C10.7624 12.8514 10.6908 13.6579 10.6908 14.7076H10.6895L10.6908 20.9904H10.6904ZM34.1346 14.3254C34.0809 15.7337 33.9892 16.8909 33.8329 18.0327C33.6592 19.3029 33.4072 20.5478 33.0413 22.091C32.9916 22.3001 32.9459 22.5035 32.9036 22.702C34.4195 21.7969 34.5304 21.0319 34.8043 19.1366C34.8847 18.5789 34.9786 17.9303 35.1163 17.1847C35.1175 17.178 35.119 17.1715 35.1206 17.1647L35.4984 15.2623C35.0249 14.9558 34.5721 14.6431 34.1346 14.3254ZM19.2001 33.1921C19.0109 33.213 18.8396 33.0817 18.8183 32.8985C18.7966 32.7157 18.9325 32.5502 19.1221 32.5296C21.4954 32.2658 22.0487 31.7299 22.9549 30.303C21.9451 30.8613 20.6105 30.9455 19.4435 31.0191C19.2436 31.0317 19.0489 31.0438 18.8286 31.0612C18.6385 31.0756 18.4724 30.9384 18.4575 30.7547C18.4426 30.5709 18.5846 30.4105 18.7747 30.396C18.9517 30.3822 19.173 30.3681 19.4003 30.3539C20.5228 30.2833 21.8116 30.202 22.6843 29.685L22.6749 29.6811C21.2662 29.117 19.9834 28.6029 18.8774 29.3785C18.7232 29.4865 18.5075 29.4532 18.3957 29.3043C18.2838 29.1553 18.3183 28.9468 18.4725 28.8387C19.8905 27.8444 21.3436 28.4265 22.9393 29.0658C23.0841 29.1238 23.23 29.1821 23.3769 29.2398C23.4564 29.1894 23.5335 29.1411 23.6063 29.0967C23.8833 28.9271 24.1267 28.7922 24.2693 28.746C24.6027 28.6385 24.8492 28.7419 25.0125 28.9465C25.1237 29.0858 25.1804 29.273 25.1874 29.458C25.1938 29.6334 25.1551 29.8178 25.0756 29.9623C24.9439 30.2014 24.7206 30.3463 24.4104 30.2789C24.3111 30.2574 24.2172 30.2359 24.1371 30.2153C24.0466 30.1917 23.9558 30.1652 23.8647 30.1343C22.61 32.1595 22.1751 32.8611 19.2004 33.1918L19.2001 33.1921ZM24.1828 29.5345C24.2261 29.5475 24.27 29.5598 24.3147 29.5713C24.3757 29.5872 24.4311 29.6005 24.4835 29.6125C24.4954 29.5751 24.5006 29.5295 24.4988 29.4818C24.4973 29.4418 24.4915 29.4058 24.4814 29.3796C24.4229 29.3999 24.3169 29.4565 24.1831 29.5345H24.1828ZM19.7638 24.4901C19.8183 24.3138 20.0103 24.2134 20.1928 24.2658C20.3753 24.3185 20.4792 24.504 20.425 24.6803C20.3229 25.0098 20.1324 25.2937 19.8856 25.4951C19.6334 25.7012 19.3241 25.8219 18.9886 25.8219C18.6952 25.8219 18.4207 25.7285 18.1863 25.5657C17.9554 25.4053 17.7659 25.1771 17.6397 24.9059C17.5623 24.7381 17.64 24.5414 17.8137 24.4663C17.9874 24.3915 18.1909 24.4666 18.2686 24.6344C18.3445 24.7981 18.4554 24.9336 18.5885 25.0257C18.7058 25.1073 18.8427 25.1541 18.9886 25.1541C19.155 25.1541 19.311 25.092 19.4405 24.9863C19.5861 24.8673 19.7004 24.6942 19.7638 24.4898V24.4901ZM20.5861 15.4681C20.6212 15.3583 20.7415 15.2968 20.8552 15.3303C20.9688 15.3642 21.0325 15.4805 20.9978 15.5903C20.0554 18.5604 20.1273 19.0418 20.4445 21.1612C20.5185 21.6558 20.6053 22.2371 20.6937 22.9343C20.708 23.0485 20.6239 23.1528 20.5057 23.1666C20.3875 23.1805 20.2796 23.0992 20.2653 22.9849C20.1745 22.2674 20.0898 21.7015 20.0179 21.2201C19.6897 19.0268 19.6151 18.5286 20.5864 15.4681H20.5861ZM22.7257 14.2321C23.2702 14.0227 23.7952 13.8054 24.2812 13.6043C26.2764 12.7787 27.6308 12.2187 29.4242 12.6206C27.7371 11.6374 26.5046 12.1359 24.301 13.0272C23.7815 13.2374 23.2099 13.4686 22.5405 13.718C22.4165 13.7642 22.3135 13.8207 22.2635 13.892C22.2254 13.9462 22.2169 14.0295 22.2568 14.154C22.2614 14.1685 22.2653 14.1794 22.2684 14.1867C22.2897 14.2382 22.3184 14.2727 22.354 14.2859C22.4122 14.3077 22.5033 14.3021 22.6298 14.2645C22.6633 14.2544 22.6956 14.2436 22.7257 14.2318V14.2321ZM24.5512 14.2173C24.0816 14.4117 23.5746 14.6213 22.9796 14.8501C22.9262 14.8707 22.8769 14.8875 22.8321 14.901C22.5505 14.985 22.308 14.9823 22.1057 14.9069C21.8811 14.823 21.7224 14.6599 21.6285 14.432C21.6163 14.4025 21.6063 14.3752 21.598 14.3498C21.4887 14.0071 21.5417 13.7362 21.694 13.5192C21.8345 13.3193 22.0505 13.1874 22.2922 13.0973C22.9195 12.8635 23.5045 12.6268 24.0366 12.4118C27.2057 11.1301 28.5531 10.5854 31.6138 13.4857C31.7372 13.5855 31.7753 13.7586 31.6958 13.9008C31.605 14.0628 31.395 14.1231 31.2274 14.0351C28.4769 12.5932 27.0607 13.1791 24.5512 14.2176V14.2173ZM23.6895 17.5015C23.5758 17.4677 23.5122 17.3514 23.5469 17.2416C23.5819 17.1317 23.7023 17.0702 23.8159 17.1038C24.1724 17.2098 24.5844 17.3243 24.9906 17.4088C24.9811 17.4003 24.972 17.3914 24.9628 17.3826C24.6895 17.1185 24.5204 16.7534 24.5204 16.3503C24.5204 16.2222 24.5375 16.0979 24.5695 15.9796C24.4857 16.0408 24.3973 16.1068 24.3026 16.1777C23.8848 16.4907 23.3488 16.8923 22.507 17.3935C22.3452 17.4901 22.1331 17.4415 22.0332 17.2851C21.9332 17.1288 21.9835 16.9239 22.1453 16.8273C22.9521 16.3468 23.4744 15.9554 23.8815 15.6507C24.6563 15.07 25.0488 14.7762 26.1091 14.7288C26.9224 14.6923 27.3532 14.8286 27.9017 15.1172C28.2027 15.2402 28.4855 15.3003 28.7484 15.3177C29.1003 15.3412 29.4212 15.2894 29.7043 15.212C29.9008 15.1581 30.0845 15.1548 30.246 15.1878C30.4118 15.2217 30.5544 15.2932 30.6659 15.3889C30.7847 15.4908 30.8682 15.6189 30.909 15.7579C30.9413 15.8683 30.9468 15.9855 30.9215 16.1024C30.9075 16.1671 30.885 16.229 30.8554 16.2861C30.7655 16.4607 30.6016 16.617 30.3996 16.7145C30.2003 16.8105 29.9596 16.8526 29.7106 16.802C29.6229 16.784 29.5364 16.7557 29.4529 16.7157C28.848 16.4245 28.4084 16.1736 28.0506 15.9696C27.8751 15.8695 27.721 15.7817 27.5765 15.7066C27.4912 15.6701 27.405 15.6295 27.3175 15.5844C27.4598 15.807 27.5421 16.0694 27.5421 16.3503C27.5421 16.7381 27.3855 17.0908 27.1302 17.3523L27.1493 17.347C27.5433 17.2363 28.0372 17.0637 28.7286 16.7955C28.8389 16.7528 28.9644 16.8046 29.0086 16.9112C29.0528 17.0178 28.9992 17.1391 28.8889 17.1818C28.1869 17.4541 27.6804 17.6308 27.2691 17.7462C26.8489 17.8643 26.5308 17.9179 26.2121 17.9429C25.8449 17.9718 25.4022 17.9173 24.9537 17.8269C24.5161 17.7386 24.0716 17.6149 23.6895 17.5015ZM26.6109 15.7903C26.4626 15.6469 26.2575 15.5582 26.0311 15.5582C25.8047 15.5582 25.5997 15.6469 25.4513 15.7903C25.3029 15.9336 25.2112 16.1318 25.2112 16.3506C25.2112 16.5693 25.3029 16.7675 25.4513 16.9109C25.5997 17.0543 25.8047 17.1429 26.0311 17.1429C26.2575 17.1429 26.4626 17.0543 26.6109 16.9109C26.7593 16.7675 26.8511 16.5693 26.8511 16.3506C26.8511 16.1318 26.7593 15.9336 26.6109 15.7903ZM29.4258 15.9528C29.5312 16.0064 29.6427 16.0614 29.7609 16.1183C29.7932 16.1339 29.8234 16.1442 29.8511 16.1498C29.9361 16.1671 30.0205 16.1515 30.0921 16.1174C30.1604 16.0844 30.2125 16.0376 30.2378 15.989C30.243 15.979 30.246 15.9716 30.2472 15.9669C30.2491 15.9578 30.2484 15.9481 30.2457 15.9381C30.2405 15.9204 30.2283 15.9027 30.2104 15.8874C30.1851 15.8659 30.15 15.8491 30.1061 15.84C30.0473 15.8279 29.9751 15.8309 29.891 15.8539C29.7445 15.8939 29.5894 15.9283 29.4258 15.9528Z"></path>
    </mask>
    <path d="M33.4624 13.8366C33.4624 13.8328 33.4624 13.8293 33.463 13.8257C32.4877 13.0832 31.5794 12.3203 30.6711 11.5574C27.4321 8.8373 24.1935 6.11695 17.8871 4.3765C17.0462 4.14448 15.8435 3.83061 14.6217 3.5503C13.7158 3.34242 12.8069 3.15428 12.0397 3.03385C11.852 3.0044 11.7243 2.83333 11.7548 2.65166C11.7852 2.47029 11.9623 2.34692 12.1503 2.37636C12.951 2.50209 13.8733 2.6923 14.7807 2.90047C16.009 3.18225 17.2241 3.49936 18.0757 3.73433C24.5268 5.51482 27.8243 8.28434 31.1214 11.0536C33.1184 12.7307 35.1154 14.4081 37.8211 15.8515C37.9881 15.9401 38.049 16.1427 37.9573 16.3041C37.8656 16.4654 37.656 16.5243 37.489 16.4357C37.0128 16.1816 36.5581 15.9207 36.1221 15.6545L35.7973 17.2898L35.7958 17.299C35.655 18.0622 35.5642 18.6887 35.4865 19.2276C35.1486 21.5651 35.0325 22.3663 32.7326 23.5632C32.612 24.2231 32.5221 24.829 32.4368 25.4053C32.1735 27.1831 31.9508 28.6856 31.0044 30.6496C30.5425 31.6086 29.288 32.8794 27.8678 34.1723C28.9029 40.8208 32.4237 42.5586 36.6758 44.6559L36.7876 44.7109C36.9576 44.7946 37.0252 44.9954 36.9387 45.1597C36.8522 45.324 36.6444 45.3893 36.4743 45.3057L36.3625 45.2506C32.0321 43.1148 28.4306 41.3375 27.2593 34.719C26.7654 35.1581 26.2627 35.595 25.7755 36.0187C25.1636 36.5505 24.5759 37.0613 24.1258 37.468C23.3915 38.1319 22.6496 38.6051 21.8619 38.9272C21.0731 39.2499 20.2443 39.4201 19.3366 39.4775C19.1464 39.489 18.9828 39.3494 18.9709 39.1657C18.9591 38.982 19.1035 38.8239 19.2936 38.8124C20.127 38.7594 20.8829 38.6057 21.595 38.3142C22.3086 38.0221 22.9841 37.5907 23.6566 36.9827C24.2035 36.4883 24.7477 36.0152 25.3142 35.5229C25.9546 34.9661 26.6228 34.3854 27.2587 33.8107C27.2627 33.8069 27.2667 33.8033 27.2709 33.7998C28.6902 32.5163 29.9474 31.2623 30.3782 30.3675C31.2829 28.4901 31.4986 27.0341 31.754 25.311C31.9008 24.3196 32.0605 23.2417 32.3688 21.9417C32.7314 20.413 32.9801 19.1861 33.1498 17.9459C33.3201 16.7016 33.4124 15.4372 33.4624 13.836V13.8366ZM19.7744 45.6676C19.7744 45.8513 19.6202 46 19.4304 46C19.2406 46 19.0864 45.851 19.0864 45.6676L19.0895 41.1444C19.0895 40.9606 19.2436 40.8119 19.4335 40.8119C19.6233 40.8119 19.7775 40.9609 19.7775 41.1444L19.7744 45.6676ZM19.0745 2.40904C18.96 2.37754 18.8935 2.26212 18.9261 2.15141C18.9587 2.0407 19.0782 1.97651 19.1928 2.00801C21.8525 2.74206 23.9774 3.64776 25.7895 4.65387C27.6015 5.65998 29.0936 6.76266 30.4925 7.89361C30.5839 7.96752 30.5958 8.09884 30.5196 8.18717C30.4431 8.27551 30.3072 8.28699 30.2158 8.21338C28.8307 7.09332 27.3559 6.0033 25.5753 5.01427C23.7946 4.02553 21.7013 3.13396 19.0748 2.40904H19.0745ZM13.2076 38.6884C13.3977 38.6884 13.5516 38.8374 13.5516 39.0208C13.5516 39.2043 13.3974 39.3533 13.2076 39.3533L10.5567 39.3503C10.3666 39.3503 10.2127 39.2013 10.2127 39.0179C10.2127 38.8345 10.3669 38.6855 10.5567 38.6855L11.5503 38.6866L11.5512 33.4476C11.2182 33.4312 10.9068 33.3808 10.6429 33.2418C10.2526 33.0363 10.0046 32.6753 10.0043 32.0323L10.0012 14.7082H10C10 13.5819 10.0841 12.6992 10.3327 12.0841C10.5741 11.4876 10.9546 11.1322 11.5311 11.04L11.5342 6.60955C11.5342 6.42582 11.6883 6.27713 11.8782 6.27713C12.068 6.27713 12.2222 6.42611 12.2222 6.60955L12.2191 11.0397C12.8724 11.1319 13.26 11.492 13.4882 12.1035C13.7176 12.7192 13.76 13.5875 13.76 14.7079H13.7588L13.7557 32.032C13.7557 32.675 13.5074 33.036 13.1171 33.2415C12.8614 33.3761 12.561 33.4276 12.2395 33.4456L12.2386 38.6869L13.2076 38.6881V38.6884ZM13.0689 21.6585L12.2414 21.6576L12.2392 32.7775C12.4568 32.7637 12.6481 32.7307 12.7874 32.6574C12.9583 32.5673 13.0668 32.3841 13.0671 32.032L13.0689 21.6585ZM11.5534 21.6567L10.6908 21.6558L10.6926 32.032C10.6926 32.3841 10.8014 32.5673 10.9723 32.6574C11.1182 32.7342 11.3212 32.7666 11.5515 32.7793L11.5537 21.6567H11.5534ZM10.6904 20.9904L13.0692 20.993L13.0704 14.7076H13.0692C13.0692 13.652 13.0336 12.8452 12.8404 12.3276C12.6829 11.9051 12.3955 11.6843 11.8785 11.6807H11.8745C11.4306 11.674 11.1487 11.8968 10.975 12.3261C10.7624 12.8514 10.6908 13.6579 10.6908 14.7076H10.6895L10.6908 20.9904H10.6904ZM34.1346 14.3254C34.0809 15.7337 33.9892 16.8909 33.8329 18.0327C33.6592 19.3029 33.4072 20.5478 33.0413 22.091C32.9916 22.3001 32.9459 22.5035 32.9036 22.702C34.4195 21.7969 34.5304 21.0319 34.8043 19.1366C34.8847 18.5789 34.9786 17.9303 35.1163 17.1847C35.1175 17.178 35.119 17.1715 35.1206 17.1647L35.4984 15.2623C35.0249 14.9558 34.5721 14.6431 34.1346 14.3254ZM19.2001 33.1921C19.0109 33.213 18.8396 33.0817 18.8183 32.8985C18.7966 32.7157 18.9325 32.5502 19.1221 32.5296C21.4954 32.2658 22.0487 31.7299 22.9549 30.303C21.9451 30.8613 20.6105 30.9455 19.4435 31.0191C19.2436 31.0317 19.0489 31.0438 18.8286 31.0612C18.6385 31.0756 18.4724 30.9384 18.4575 30.7547C18.4426 30.5709 18.5846 30.4105 18.7747 30.396C18.9517 30.3822 19.173 30.3681 19.4003 30.3539C20.5228 30.2833 21.8116 30.202 22.6843 29.685L22.6749 29.6811C21.2662 29.117 19.9834 28.6029 18.8774 29.3785C18.7232 29.4865 18.5075 29.4532 18.3957 29.3043C18.2838 29.1553 18.3183 28.9468 18.4725 28.8387C19.8905 27.8444 21.3436 28.4265 22.9393 29.0658C23.0841 29.1238 23.23 29.1821 23.3769 29.2398C23.4564 29.1894 23.5335 29.1411 23.6063 29.0967C23.8833 28.9271 24.1267 28.7922 24.2693 28.746C24.6027 28.6385 24.8492 28.7419 25.0125 28.9465C25.1237 29.0858 25.1804 29.273 25.1874 29.458C25.1938 29.6334 25.1551 29.8178 25.0756 29.9623C24.9439 30.2014 24.7206 30.3463 24.4104 30.2789C24.3111 30.2574 24.2172 30.2359 24.1371 30.2153C24.0466 30.1917 23.9558 30.1652 23.8647 30.1343C22.61 32.1595 22.1751 32.8611 19.2004 33.1918L19.2001 33.1921ZM24.1828 29.5345C24.2261 29.5475 24.27 29.5598 24.3147 29.5713C24.3757 29.5872 24.4311 29.6005 24.4835 29.6125C24.4954 29.5751 24.5006 29.5295 24.4988 29.4818C24.4973 29.4418 24.4915 29.4058 24.4814 29.3796C24.4229 29.3999 24.3169 29.4565 24.1831 29.5345H24.1828ZM19.7638 24.4901C19.8183 24.3138 20.0103 24.2134 20.1928 24.2658C20.3753 24.3185 20.4792 24.504 20.425 24.6803C20.3229 25.0098 20.1324 25.2937 19.8856 25.4951C19.6334 25.7012 19.3241 25.8219 18.9886 25.8219C18.6952 25.8219 18.4207 25.7285 18.1863 25.5657C17.9554 25.4053 17.7659 25.1771 17.6397 24.9059C17.5623 24.7381 17.64 24.5414 17.8137 24.4663C17.9874 24.3915 18.1909 24.4666 18.2686 24.6344C18.3445 24.7981 18.4554 24.9336 18.5885 25.0257C18.7058 25.1073 18.8427 25.1541 18.9886 25.1541C19.155 25.1541 19.311 25.092 19.4405 24.9863C19.5861 24.8673 19.7004 24.6942 19.7638 24.4898V24.4901ZM20.5861 15.4681C20.6212 15.3583 20.7415 15.2968 20.8552 15.3303C20.9688 15.3642 21.0325 15.4805 20.9978 15.5903C20.0554 18.5604 20.1273 19.0418 20.4445 21.1612C20.5185 21.6558 20.6053 22.2371 20.6937 22.9343C20.708 23.0485 20.6239 23.1528 20.5057 23.1666C20.3875 23.1805 20.2796 23.0992 20.2653 22.9849C20.1745 22.2674 20.0898 21.7015 20.0179 21.2201C19.6897 19.0268 19.6151 18.5286 20.5864 15.4681H20.5861ZM22.7257 14.2321C23.2702 14.0227 23.7952 13.8054 24.2812 13.6043C26.2764 12.7787 27.6308 12.2187 29.4242 12.6206C27.7371 11.6374 26.5046 12.1359 24.301 13.0272C23.7815 13.2374 23.2099 13.4686 22.5405 13.718C22.4165 13.7642 22.3135 13.8207 22.2635 13.892C22.2254 13.9462 22.2169 14.0295 22.2568 14.154C22.2614 14.1685 22.2653 14.1794 22.2684 14.1867C22.2897 14.2382 22.3184 14.2727 22.354 14.2859C22.4122 14.3077 22.5033 14.3021 22.6298 14.2645C22.6633 14.2544 22.6956 14.2436 22.7257 14.2318V14.2321ZM24.5512 14.2173C24.0816 14.4117 23.5746 14.6213 22.9796 14.8501C22.9262 14.8707 22.8769 14.8875 22.8321 14.901C22.5505 14.985 22.308 14.9823 22.1057 14.9069C21.8811 14.823 21.7224 14.6599 21.6285 14.432C21.6163 14.4025 21.6063 14.3752 21.598 14.3498C21.4887 14.0071 21.5417 13.7362 21.694 13.5192C21.8345 13.3193 22.0505 13.1874 22.2922 13.0973C22.9195 12.8635 23.5045 12.6268 24.0366 12.4118C27.2057 11.1301 28.5531 10.5854 31.6138 13.4857C31.7372 13.5855 31.7753 13.7586 31.6958 13.9008C31.605 14.0628 31.395 14.1231 31.2274 14.0351C28.4769 12.5932 27.0607 13.1791 24.5512 14.2176V14.2173ZM23.6895 17.5015C23.5758 17.4677 23.5122 17.3514 23.5469 17.2416C23.5819 17.1317 23.7023 17.0702 23.8159 17.1038C24.1724 17.2098 24.5844 17.3243 24.9906 17.4088C24.9811 17.4003 24.972 17.3914 24.9628 17.3826C24.6895 17.1185 24.5204 16.7534 24.5204 16.3503C24.5204 16.2222 24.5375 16.0979 24.5695 15.9796C24.4857 16.0408 24.3973 16.1068 24.3026 16.1777C23.8848 16.4907 23.3488 16.8923 22.507 17.3935C22.3452 17.4901 22.1331 17.4415 22.0332 17.2851C21.9332 17.1288 21.9835 16.9239 22.1453 16.8273C22.9521 16.3468 23.4744 15.9554 23.8815 15.6507C24.6563 15.07 25.0488 14.7762 26.1091 14.7288C26.9224 14.6923 27.3532 14.8286 27.9017 15.1172C28.2027 15.2402 28.4855 15.3003 28.7484 15.3177C29.1003 15.3412 29.4212 15.2894 29.7043 15.212C29.9008 15.1581 30.0845 15.1548 30.246 15.1878C30.4118 15.2217 30.5544 15.2932 30.6659 15.3889C30.7847 15.4908 30.8682 15.6189 30.909 15.7579C30.9413 15.8683 30.9468 15.9855 30.9215 16.1024C30.9075 16.1671 30.885 16.229 30.8554 16.2861C30.7655 16.4607 30.6016 16.617 30.3996 16.7145C30.2003 16.8105 29.9596 16.8526 29.7106 16.802C29.6229 16.784 29.5364 16.7557 29.4529 16.7157C28.848 16.4245 28.4084 16.1736 28.0506 15.9696C27.8751 15.8695 27.721 15.7817 27.5765 15.7066C27.4912 15.6701 27.405 15.6295 27.3175 15.5844C27.4598 15.807 27.5421 16.0694 27.5421 16.3503C27.5421 16.7381 27.3855 17.0908 27.1302 17.3523L27.1493 17.347C27.5433 17.2363 28.0372 17.0637 28.7286 16.7955C28.8389 16.7528 28.9644 16.8046 29.0086 16.9112C29.0528 17.0178 28.9992 17.1391 28.8889 17.1818C28.1869 17.4541 27.6804 17.6308 27.2691 17.7462C26.8489 17.8643 26.5308 17.9179 26.2121 17.9429C25.8449 17.9718 25.4022 17.9173 24.9537 17.8269C24.5161 17.7386 24.0716 17.6149 23.6895 17.5015ZM26.6109 15.7903C26.4626 15.6469 26.2575 15.5582 26.0311 15.5582C25.8047 15.5582 25.5997 15.6469 25.4513 15.7903C25.3029 15.9336 25.2112 16.1318 25.2112 16.3506C25.2112 16.5693 25.3029 16.7675 25.4513 16.9109C25.5997 17.0543 25.8047 17.1429 26.0311 17.1429C26.2575 17.1429 26.4626 17.0543 26.6109 16.9109C26.7593 16.7675 26.8511 16.5693 26.8511 16.3506C26.8511 16.1318 26.7593 15.9336 26.6109 15.7903ZM29.4258 15.9528C29.5312 16.0064 29.6427 16.0614 29.7609 16.1183C29.7932 16.1339 29.8234 16.1442 29.8511 16.1498C29.9361 16.1671 30.0205 16.1515 30.0921 16.1174C30.1604 16.0844 30.2125 16.0376 30.2378 15.989C30.243 15.979 30.246 15.9716 30.2472 15.9669C30.2491 15.9578 30.2484 15.9481 30.2457 15.9381C30.2405 15.9204 30.2283 15.9027 30.2104 15.8874C30.1851 15.8659 30.15 15.8491 30.1061 15.84C30.0473 15.8279 29.9751 15.8309 29.891 15.8539C29.7445 15.8939 29.5894 15.9283 29.4258 15.9528Z" fill="#CA9FA9"></path>
    <path d="M33.4624 13.8366C33.4624 13.8328 33.4624 13.8293 33.463 13.8257C32.4877 13.0832 31.5794 12.3203 30.6711 11.5574C27.4321 8.8373 24.1935 6.11695 17.8871 4.3765C17.0462 4.14448 15.8435 3.83061 14.6217 3.5503C13.7158 3.34242 12.8069 3.15428 12.0397 3.03385C11.852 3.0044 11.7243 2.83333 11.7548 2.65166C11.7852 2.47029 11.9623 2.34692 12.1503 2.37636C12.951 2.50209 13.8733 2.6923 14.7807 2.90047C16.009 3.18225 17.2241 3.49936 18.0757 3.73433C24.5268 5.51482 27.8243 8.28434 31.1214 11.0536C33.1184 12.7307 35.1154 14.4081 37.8211 15.8515C37.9881 15.9401 38.049 16.1427 37.9573 16.3041C37.8656 16.4654 37.656 16.5243 37.489 16.4357C37.0128 16.1816 36.5581 15.9207 36.1221 15.6545L35.7973 17.2898L35.7958 17.299C35.655 18.0622 35.5642 18.6887 35.4865 19.2276C35.1486 21.5651 35.0325 22.3663 32.7326 23.5632C32.612 24.2231 32.5221 24.829 32.4368 25.4053C32.1735 27.1831 31.9508 28.6856 31.0044 30.6496C30.5425 31.6086 29.288 32.8794 27.8678 34.1723C28.9029 40.8208 32.4237 42.5586 36.6758 44.6559L36.7876 44.7109C36.9576 44.7946 37.0252 44.9954 36.9387 45.1597C36.8522 45.324 36.6444 45.3893 36.4743 45.3057L36.3625 45.2506C32.0321 43.1148 28.4306 41.3375 27.2593 34.719C26.7654 35.1581 26.2627 35.595 25.7755 36.0187C25.1636 36.5505 24.5759 37.0613 24.1258 37.468C23.3915 38.1319 22.6496 38.6051 21.8619 38.9272C21.0731 39.2499 20.2443 39.4201 19.3366 39.4775C19.1464 39.489 18.9828 39.3494 18.9709 39.1657C18.9591 38.982 19.1035 38.8239 19.2936 38.8124C20.127 38.7594 20.8829 38.6057 21.595 38.3142C22.3086 38.0221 22.9841 37.5907 23.6566 36.9827C24.2035 36.4883 24.7477 36.0152 25.3142 35.5229C25.9546 34.9661 26.6228 34.3854 27.2587 33.8107C27.2627 33.8069 27.2667 33.8033 27.2709 33.7998C28.6902 32.5163 29.9474 31.2623 30.3782 30.3675C31.2829 28.4901 31.4986 27.0341 31.754 25.311C31.9008 24.3196 32.0605 23.2417 32.3688 21.9417C32.7314 20.413 32.9801 19.1861 33.1498 17.9459C33.3201 16.7016 33.4124 15.4372 33.4624 13.836V13.8366ZM19.7744 45.6676C19.7744 45.8513 19.6202 46 19.4304 46C19.2406 46 19.0864 45.851 19.0864 45.6676L19.0895 41.1444C19.0895 40.9606 19.2436 40.8119 19.4335 40.8119C19.6233 40.8119 19.7775 40.9609 19.7775 41.1444L19.7744 45.6676ZM19.0745 2.40904C18.96 2.37754 18.8935 2.26212 18.9261 2.15141C18.9587 2.0407 19.0782 1.97651 19.1928 2.00801C21.8525 2.74206 23.9774 3.64776 25.7895 4.65387C27.6015 5.65998 29.0936 6.76266 30.4925 7.89361C30.5839 7.96752 30.5958 8.09884 30.5196 8.18717C30.4431 8.27551 30.3072 8.28699 30.2158 8.21338C28.8307 7.09332 27.3559 6.0033 25.5753 5.01427C23.7946 4.02553 21.7013 3.13396 19.0748 2.40904H19.0745ZM13.2076 38.6884C13.3977 38.6884 13.5516 38.8374 13.5516 39.0208C13.5516 39.2043 13.3974 39.3533 13.2076 39.3533L10.5567 39.3503C10.3666 39.3503 10.2127 39.2013 10.2127 39.0179C10.2127 38.8345 10.3669 38.6855 10.5567 38.6855L11.5503 38.6866L11.5512 33.4476C11.2182 33.4312 10.9068 33.3808 10.6429 33.2418C10.2526 33.0363 10.0046 32.6753 10.0043 32.0323L10.0012 14.7082H10C10 13.5819 10.0841 12.6992 10.3327 12.0841C10.5741 11.4876 10.9546 11.1322 11.5311 11.04L11.5342 6.60955C11.5342 6.42582 11.6883 6.27713 11.8782 6.27713C12.068 6.27713 12.2222 6.42611 12.2222 6.60955L12.2191 11.0397C12.8724 11.1319 13.26 11.492 13.4882 12.1035C13.7176 12.7192 13.76 13.5875 13.76 14.7079H13.7588L13.7557 32.032C13.7557 32.675 13.5074 33.036 13.1171 33.2415C12.8614 33.3761 12.561 33.4276 12.2395 33.4456L12.2386 38.6869L13.2076 38.6881V38.6884ZM13.0689 21.6585L12.2414 21.6576L12.2392 32.7775C12.4568 32.7637 12.6481 32.7307 12.7874 32.6574C12.9583 32.5673 13.0668 32.3841 13.0671 32.032L13.0689 21.6585ZM11.5534 21.6567L10.6908 21.6558L10.6926 32.032C10.6926 32.3841 10.8014 32.5673 10.9723 32.6574C11.1182 32.7342 11.3212 32.7666 11.5515 32.7793L11.5537 21.6567H11.5534ZM10.6904 20.9904L13.0692 20.993L13.0704 14.7076H13.0692C13.0692 13.652 13.0336 12.8452 12.8404 12.3276C12.6829 11.9051 12.3955 11.6843 11.8785 11.6807H11.8745C11.4306 11.674 11.1487 11.8968 10.975 12.3261C10.7624 12.8514 10.6908 13.6579 10.6908 14.7076H10.6895L10.6908 20.9904H10.6904ZM34.1346 14.3254C34.0809 15.7337 33.9892 16.8909 33.8329 18.0327C33.6592 19.3029 33.4072 20.5478 33.0413 22.091C32.9916 22.3001 32.9459 22.5035 32.9036 22.702C34.4195 21.7969 34.5304 21.0319 34.8043 19.1366C34.8847 18.5789 34.9786 17.9303 35.1163 17.1847C35.1175 17.178 35.119 17.1715 35.1206 17.1647L35.4984 15.2623C35.0249 14.9558 34.5721 14.6431 34.1346 14.3254ZM19.2001 33.1921C19.0109 33.213 18.8396 33.0817 18.8183 32.8985C18.7966 32.7157 18.9325 32.5502 19.1221 32.5296C21.4954 32.2658 22.0487 31.7299 22.9549 30.303C21.9451 30.8613 20.6105 30.9455 19.4435 31.0191C19.2436 31.0317 19.0489 31.0438 18.8286 31.0612C18.6385 31.0756 18.4724 30.9384 18.4575 30.7547C18.4426 30.5709 18.5846 30.4105 18.7747 30.396C18.9517 30.3822 19.173 30.3681 19.4003 30.3539C20.5228 30.2833 21.8116 30.202 22.6843 29.685L22.6749 29.6811C21.2662 29.117 19.9834 28.6029 18.8774 29.3785C18.7232 29.4865 18.5075 29.4532 18.3957 29.3043C18.2838 29.1553 18.3183 28.9468 18.4725 28.8387C19.8905 27.8444 21.3436 28.4265 22.9393 29.0658C23.0841 29.1238 23.23 29.1821 23.3769 29.2398C23.4564 29.1894 23.5335 29.1411 23.6063 29.0967C23.8833 28.9271 24.1267 28.7922 24.2693 28.746C24.6027 28.6385 24.8492 28.7419 25.0125 28.9465C25.1237 29.0858 25.1804 29.273 25.1874 29.458C25.1938 29.6334 25.1551 29.8178 25.0756 29.9623C24.9439 30.2014 24.7206 30.3463 24.4104 30.2789C24.3111 30.2574 24.2172 30.2359 24.1371 30.2153C24.0466 30.1917 23.9558 30.1652 23.8647 30.1343C22.61 32.1595 22.1751 32.8611 19.2004 33.1918L19.2001 33.1921ZM24.1828 29.5345C24.2261 29.5475 24.27 29.5598 24.3147 29.5713C24.3757 29.5872 24.4311 29.6005 24.4835 29.6125C24.4954 29.5751 24.5006 29.5295 24.4988 29.4818C24.4973 29.4418 24.4915 29.4058 24.4814 29.3796C24.4229 29.3999 24.3169 29.4565 24.1831 29.5345H24.1828ZM19.7638 24.4901C19.8183 24.3138 20.0103 24.2134 20.1928 24.2658C20.3753 24.3185 20.4792 24.504 20.425 24.6803C20.3229 25.0098 20.1324 25.2937 19.8856 25.4951C19.6334 25.7012 19.3241 25.8219 18.9886 25.8219C18.6952 25.8219 18.4207 25.7285 18.1863 25.5657C17.9554 25.4053 17.7659 25.1771 17.6397 24.9059C17.5623 24.7381 17.64 24.5414 17.8137 24.4663C17.9874 24.3915 18.1909 24.4666 18.2686 24.6344C18.3445 24.7981 18.4554 24.9336 18.5885 25.0257C18.7058 25.1073 18.8427 25.1541 18.9886 25.1541C19.155 25.1541 19.311 25.092 19.4405 24.9863C19.5861 24.8673 19.7004 24.6942 19.7638 24.4898V24.4901ZM20.5861 15.4681C20.6212 15.3583 20.7415 15.2968 20.8552 15.3303C20.9688 15.3642 21.0325 15.4805 20.9978 15.5903C20.0554 18.5604 20.1273 19.0418 20.4445 21.1612C20.5185 21.6558 20.6053 22.2371 20.6937 22.9343C20.708 23.0485 20.6239 23.1528 20.5057 23.1666C20.3875 23.1805 20.2796 23.0992 20.2653 22.9849C20.1745 22.2674 20.0898 21.7015 20.0179 21.2201C19.6897 19.0268 19.6151 18.5286 20.5864 15.4681H20.5861ZM22.7257 14.2321C23.2702 14.0227 23.7952 13.8054 24.2812 13.6043C26.2764 12.7787 27.6308 12.2187 29.4242 12.6206C27.7371 11.6374 26.5046 12.1359 24.301 13.0272C23.7815 13.2374 23.2099 13.4686 22.5405 13.718C22.4165 13.7642 22.3135 13.8207 22.2635 13.892C22.2254 13.9462 22.2169 14.0295 22.2568 14.154C22.2614 14.1685 22.2653 14.1794 22.2684 14.1867C22.2897 14.2382 22.3184 14.2727 22.354 14.2859C22.4122 14.3077 22.5033 14.3021 22.6298 14.2645C22.6633 14.2544 22.6956 14.2436 22.7257 14.2318V14.2321ZM24.5512 14.2173C24.0816 14.4117 23.5746 14.6213 22.9796 14.8501C22.9262 14.8707 22.8769 14.8875 22.8321 14.901C22.5505 14.985 22.308 14.9823 22.1057 14.9069C21.8811 14.823 21.7224 14.6599 21.6285 14.432C21.6163 14.4025 21.6063 14.3752 21.598 14.3498C21.4887 14.0071 21.5417 13.7362 21.694 13.5192C21.8345 13.3193 22.0505 13.1874 22.2922 13.0973C22.9195 12.8635 23.5045 12.6268 24.0366 12.4118C27.2057 11.1301 28.5531 10.5854 31.6138 13.4857C31.7372 13.5855 31.7753 13.7586 31.6958 13.9008C31.605 14.0628 31.395 14.1231 31.2274 14.0351C28.4769 12.5932 27.0607 13.1791 24.5512 14.2176V14.2173ZM23.6895 17.5015C23.5758 17.4677 23.5122 17.3514 23.5469 17.2416C23.5819 17.1317 23.7023 17.0702 23.8159 17.1038C24.1724 17.2098 24.5844 17.3243 24.9906 17.4088C24.9811 17.4003 24.972 17.3914 24.9628 17.3826C24.6895 17.1185 24.5204 16.7534 24.5204 16.3503C24.5204 16.2222 24.5375 16.0979 24.5695 15.9796C24.4857 16.0408 24.3973 16.1068 24.3026 16.1777C23.8848 16.4907 23.3488 16.8923 22.507 17.3935C22.3452 17.4901 22.1331 17.4415 22.0332 17.2851C21.9332 17.1288 21.9835 16.9239 22.1453 16.8273C22.9521 16.3468 23.4744 15.9554 23.8815 15.6507C24.6563 15.07 25.0488 14.7762 26.1091 14.7288C26.9224 14.6923 27.3532 14.8286 27.9017 15.1172C28.2027 15.2402 28.4855 15.3003 28.7484 15.3177C29.1003 15.3412 29.4212 15.2894 29.7043 15.212C29.9008 15.1581 30.0845 15.1548 30.246 15.1878C30.4118 15.2217 30.5544 15.2932 30.6659 15.3889C30.7847 15.4908 30.8682 15.6189 30.909 15.7579C30.9413 15.8683 30.9468 15.9855 30.9215 16.1024C30.9075 16.1671 30.885 16.229 30.8554 16.2861C30.7655 16.4607 30.6016 16.617 30.3996 16.7145C30.2003 16.8105 29.9596 16.8526 29.7106 16.802C29.6229 16.784 29.5364 16.7557 29.4529 16.7157C28.848 16.4245 28.4084 16.1736 28.0506 15.9696C27.8751 15.8695 27.721 15.7817 27.5765 15.7066C27.4912 15.6701 27.405 15.6295 27.3175 15.5844C27.4598 15.807 27.5421 16.0694 27.5421 16.3503C27.5421 16.7381 27.3855 17.0908 27.1302 17.3523L27.1493 17.347C27.5433 17.2363 28.0372 17.0637 28.7286 16.7955C28.8389 16.7528 28.9644 16.8046 29.0086 16.9112C29.0528 17.0178 28.9992 17.1391 28.8889 17.1818C28.1869 17.4541 27.6804 17.6308 27.2691 17.7462C26.8489 17.8643 26.5308 17.9179 26.2121 17.9429C25.8449 17.9718 25.4022 17.9173 24.9537 17.8269C24.5161 17.7386 24.0716 17.6149 23.6895 17.5015ZM26.6109 15.7903C26.4626 15.6469 26.2575 15.5582 26.0311 15.5582C25.8047 15.5582 25.5997 15.6469 25.4513 15.7903C25.3029 15.9336 25.2112 16.1318 25.2112 16.3506C25.2112 16.5693 25.3029 16.7675 25.4513 16.9109C25.5997 17.0543 25.8047 17.1429 26.0311 17.1429C26.2575 17.1429 26.4626 17.0543 26.6109 16.9109C26.7593 16.7675 26.8511 16.5693 26.8511 16.3506C26.8511 16.1318 26.7593 15.9336 26.6109 15.7903ZM29.4258 15.9528C29.5312 16.0064 29.6427 16.0614 29.7609 16.1183C29.7932 16.1339 29.8234 16.1442 29.8511 16.1498C29.9361 16.1671 30.0205 16.1515 30.0921 16.1174C30.1604 16.0844 30.2125 16.0376 30.2378 15.989C30.243 15.979 30.246 15.9716 30.2472 15.9669C30.2491 15.9578 30.2484 15.9481 30.2457 15.9381C30.2405 15.9204 30.2283 15.9027 30.2104 15.8874C30.1851 15.8659 30.15 15.8491 30.1061 15.84C30.0473 15.8279 29.9751 15.8309 29.891 15.8539C29.7445 15.8939 29.5894 15.9283 29.4258 15.9528Z" stroke="#CA9FA9" stroke-width="0.4" mask="url(#path-1-outside-1_219_320)"></path>
    <mask id="path-2-outside-2_219_320" maskUnits="userSpaceOnUse" x="-19" y="-19" width="86" height="86" fill="black">
      <rect fill="white" x="-19" y="-19" width="86" height="86"></rect>
      <path d="M-17.3245 65.3253V66H-18V65.3253H-17.3245ZM17.7987 65.3253V66H17.1232V65.3253H17.7987ZM15.0969 65.3253V66H14.4213V65.3253H15.0969ZM12.395 65.3253V66H11.7195V65.3253H12.395ZM9.69321 65.3253V66H9.01768V65.3253H9.69321ZM6.99168 65.3253V66H6.31615V65.3253H6.99168ZM4.28985 65.3253V66H3.61432V65.3253H4.28985ZM1.58803 65.3253V66H0.912497V65.3253H1.58803ZM-1.1138 65.3253V66H-1.78933V65.3253H-1.1138ZM-3.81563 65.3253V66H-4.49116V65.3253H-3.81563ZM-6.51746 65.3253V66H-7.19299V65.3253H-6.51746ZM-9.21928 65.3253V66H-9.89482V65.3253H-9.21928ZM-11.9211 65.3253V66H-12.5966V65.3253H-11.9211ZM-14.6226 65.3253V66H-15.2982V65.3253H-14.6226ZM30.8765 -18V-17.3253H30.201V-18H30.8765ZM66 -18V-17.3253H65.3245V-18H66ZM63.2982 -18V-17.3253H62.6226V-18H63.2982ZM60.5963 -18V-17.3253H59.9208V-18H60.5963ZM57.8945 -18V-17.3253H57.219V-18H57.8945ZM55.1927 -18V-17.3253H54.5172V-18H55.1927ZM52.4909 -18V-17.3253H51.8153V-18H52.4909ZM49.789 -18V-17.3253H49.1135V-18H49.789ZM47.0875 -18V-17.3253H46.412V-18H47.0875ZM44.3857 -18V-17.3253H43.7101V-18H44.3857ZM41.6839 -18V-17.3253H41.0083V-18H41.6839ZM38.982 -18V-17.3253H38.3065V-18H38.982ZM36.2802 -18V-17.3253H35.6047V-18H36.2802ZM33.5784 -18V-17.3253H32.9028V-18H33.5784Z"></path>
    </mask>
    <path d="M-17.3245 65.3253V66H-18V65.3253H-17.3245ZM17.7987 65.3253V66H17.1232V65.3253H17.7987ZM15.0969 65.3253V66H14.4213V65.3253H15.0969ZM12.395 65.3253V66H11.7195V65.3253H12.395ZM9.69321 65.3253V66H9.01768V65.3253H9.69321ZM6.99168 65.3253V66H6.31615V65.3253H6.99168ZM4.28985 65.3253V66H3.61432V65.3253H4.28985ZM1.58803 65.3253V66H0.912497V65.3253H1.58803ZM-1.1138 65.3253V66H-1.78933V65.3253H-1.1138ZM-3.81563 65.3253V66H-4.49116V65.3253H-3.81563ZM-6.51746 65.3253V66H-7.19299V65.3253H-6.51746ZM-9.21928 65.3253V66H-9.89482V65.3253H-9.21928ZM-11.9211 65.3253V66H-12.5966V65.3253H-11.9211ZM-14.6226 65.3253V66H-15.2982V65.3253H-14.6226ZM30.8765 -18V-17.3253H30.201V-18H30.8765ZM66 -18V-17.3253H65.3245V-18H66ZM63.2982 -18V-17.3253H62.6226V-18H63.2982ZM60.5963 -18V-17.3253H59.9208V-18H60.5963ZM57.8945 -18V-17.3253H57.219V-18H57.8945ZM55.1927 -18V-17.3253H54.5172V-18H55.1927ZM52.4909 -18V-17.3253H51.8153V-18H52.4909ZM49.789 -18V-17.3253H49.1135V-18H49.789ZM47.0875 -18V-17.3253H46.412V-18H47.0875ZM44.3857 -18V-17.3253H43.7101V-18H44.3857ZM41.6839 -18V-17.3253H41.0083V-18H41.6839ZM38.982 -18V-17.3253H38.3065V-18H38.982ZM36.2802 -18V-17.3253H35.6047V-18H36.2802ZM33.5784 -18V-17.3253H32.9028V-18H33.5784Z" fill="#CA9FA9"></path>
    <path d="M-17.3245 65.3253V66H-18V65.3253H-17.3245ZM17.7987 65.3253V66H17.1232V65.3253H17.7987ZM15.0969 65.3253V66H14.4213V65.3253H15.0969ZM12.395 65.3253V66H11.7195V65.3253H12.395ZM9.69321 65.3253V66H9.01768V65.3253H9.69321ZM6.99168 65.3253V66H6.31615V65.3253H6.99168ZM4.28985 65.3253V66H3.61432V65.3253H4.28985ZM1.58803 65.3253V66H0.912497V65.3253H1.58803ZM-1.1138 65.3253V66H-1.78933V65.3253H-1.1138ZM-3.81563 65.3253V66H-4.49116V65.3253H-3.81563ZM-6.51746 65.3253V66H-7.19299V65.3253H-6.51746ZM-9.21928 65.3253V66H-9.89482V65.3253H-9.21928ZM-11.9211 65.3253V66H-12.5966V65.3253H-11.9211ZM-14.6226 65.3253V66H-15.2982V65.3253H-14.6226ZM30.8765 -18V-17.3253H30.201V-18H30.8765ZM66 -18V-17.3253H65.3245V-18H66ZM63.2982 -18V-17.3253H62.6226V-18H63.2982ZM60.5963 -18V-17.3253H59.9208V-18H60.5963ZM57.8945 -18V-17.3253H57.219V-18H57.8945ZM55.1927 -18V-17.3253H54.5172V-18H55.1927ZM52.4909 -18V-17.3253H51.8153V-18H52.4909ZM49.789 -18V-17.3253H49.1135V-18H49.789ZM47.0875 -18V-17.3253H46.412V-18H47.0875ZM44.3857 -18V-17.3253H43.7101V-18H44.3857ZM41.6839 -18V-17.3253H41.0083V-18H41.6839ZM38.982 -18V-17.3253H38.3065V-18H38.982ZM36.2802 -18V-17.3253H35.6047V-18H36.2802ZM33.5784 -18V-17.3253H32.9028V-18H33.5784Z" stroke="#CA9FA9" stroke-width="0.4" mask="url(#path-2-outside-2_219_320)"></path>
  </g>
  <defs>
    <clipPath id="clip0_219_320">
      <rect width="47.9374" height="48" fill="white" transform="translate(0.0734863)"></rect>
    </clipPath>
  </defs>
</svg>
