<?xml version="1.0" encoding="UTF-8"?>
<svg xmlns="http://www.w3.org/2000/svg" width="49" height="48" viewBox="0 0 49 48" fill="none">
  <g clip-path="url(#clip0_61_2540)">
    <path d="M1.63866 15.8456C3.32707 17.0318 5.07959 17.455 6.68251 17.455C8.97576 17.455 10.9634 16.5872 12.0213 15.8456C12.4787 15.525 12.5898 14.8946 12.2671 14.4372C11.9444 13.9798 11.3139 13.8687 10.8587 14.1914C10.8202 14.2192 6.7851 16.9869 2.80131 14.1914C2.34608 13.8687 1.71346 13.9798 1.39288 14.4351C1.07229 14.8924 1.18129 15.5229 1.63866 15.8435V15.8456Z" fill="#CA9FA9"></path>
    <path d="M14.1201 17.7499C14.4621 17.3096 14.383 16.6792 13.9449 16.3351C13.5046 15.991 12.8698 16.0701 12.5257 16.506C12.389 16.6792 9.09762 20.7271 1.55534 20.7271C0.997526 20.7271 0.544434 21.1802 0.544434 21.738C0.544434 22.2958 0.997526 22.7489 1.55534 22.7489C10.1406 22.7489 13.962 17.953 14.1201 17.7499Z" fill="#CA9FA9"></path>
    <path d="M16.9691 18.6689C17.202 18.1603 16.9819 17.5597 16.4732 17.3267C15.9646 17.0916 15.364 17.3139 15.131 17.8226C15.1075 17.8739 12.7309 22.8921 5.49001 25.7346C4.97066 25.9398 4.71419 26.5254 4.91723 27.0469C5.07325 27.4465 5.45581 27.688 5.85975 27.688C5.9837 27.688 6.10766 27.6666 6.22949 27.6175C14.2206 24.4822 16.8601 18.904 16.9691 18.6689Z" fill="#CA9FA9"></path>
    <path d="M18.8689 18.4445C18.3196 18.327 17.7853 18.6753 17.6678 19.2225C17.6549 19.278 16.3833 24.9588 11.3971 29.1371C10.9675 29.4961 10.912 30.1351 11.271 30.5626C11.4719 30.802 11.7583 30.9238 12.0468 30.9238C12.2755 30.9238 12.5063 30.8468 12.6966 30.6887C18.2384 26.0466 19.5934 19.9042 19.649 19.6456C19.7644 19.1006 19.416 18.5642 18.871 18.4466L18.8689 18.4445Z" fill="#CA9FA9"></path>
    <path d="M21.7307 19.4618C21.175 19.3657 20.6599 19.7482 20.5702 20.2996C20.5616 20.3595 19.5956 26.2817 17.7255 30.7122C17.5075 31.2273 17.749 31.8193 18.2641 32.0373C18.3923 32.0907 18.5248 32.1164 18.6573 32.1164C19.0527 32.1164 19.4267 31.8855 19.5892 31.4987C21.5554 26.8417 22.5279 20.8745 22.5685 20.6224C22.6561 20.071 22.2821 19.5516 21.7307 19.464V19.4618Z" fill="#CA9FA9"></path>
    <path d="M24.5412 19.9598C23.9834 19.9598 23.5303 20.4129 23.5303 20.9707V32.6784C23.5303 33.2362 23.9834 33.6893 24.5412 33.6893C25.099 33.6893 25.5521 33.2362 25.5521 32.6784V20.9707C25.5521 20.4129 25.099 19.9598 24.5412 19.9598Z" fill="#CA9FA9"></path>
    <path d="M37.061 15.8456C38.1189 16.5872 40.1044 17.455 42.3998 17.455C44.0027 17.455 45.7553 17.0318 47.4437 15.8456C47.901 15.525 48.0122 14.8946 47.6895 14.4372C47.3689 13.9798 46.7362 13.8687 46.281 14.1914C42.3357 16.9613 38.4011 14.3111 38.2215 14.1914C37.7663 13.873 37.1358 13.982 36.8152 14.4393C36.4947 14.8967 36.6037 15.5272 37.061 15.8478V15.8456Z" fill="#CA9FA9"></path>
    <path d="M47.5291 20.7271C39.9868 20.7271 36.6976 16.6813 36.5587 16.5061C36.2146 16.0679 35.582 15.9889 35.1417 16.3308C34.7014 16.6728 34.6202 17.3097 34.9622 17.7499C35.1203 17.9551 38.9438 22.7489 47.5269 22.7489C48.0847 22.7489 48.5378 22.2958 48.5378 21.738C48.5378 21.1802 48.0847 20.7271 47.5269 20.7271H47.5291Z" fill="#CA9FA9"></path>
    <path d="M43.5925 25.7346C36.4242 22.922 33.9878 17.9016 33.9514 17.8204C33.7163 17.3139 33.1179 17.0938 32.6114 17.3267C32.1027 17.5597 31.8826 18.1602 32.1155 18.6689C32.2245 18.904 34.864 24.4822 42.8551 27.6175C42.9769 27.6645 43.1009 27.688 43.2249 27.688C43.6288 27.688 44.0092 27.4443 44.1674 27.0468C44.3726 26.5275 44.1161 25.9397 43.5946 25.7346H43.5925Z" fill="#CA9FA9"></path>
    <path d="M31.4144 19.2224C31.299 18.6753 30.7625 18.3312 30.2154 18.4423C29.6704 18.5578 29.3199 19.0963 29.4353 19.6413C29.4909 19.8999 30.8459 26.0445 36.3877 30.6844C36.5758 30.8425 36.8066 30.9195 37.0374 30.9195C37.326 30.9195 37.6145 30.7955 37.8132 30.5583C38.1723 30.1308 38.1146 29.4918 37.6872 29.1328C32.7245 24.9758 31.44 19.3293 31.4165 19.2203L31.4144 19.2224Z" fill="#CA9FA9"></path>
    <path d="M28.512 20.2996C28.4223 19.7482 27.9072 19.3657 27.3515 19.4618C26.8001 19.5495 26.424 20.0688 26.5137 20.6202C26.5543 20.8724 27.5268 26.8396 29.493 31.4966C29.6555 31.8834 30.0316 32.1142 30.4249 32.1142C30.5552 32.1142 30.6899 32.0886 30.8181 32.0352C31.3332 31.8172 31.5747 31.2251 31.3567 30.7101C29.4888 26.2817 28.5206 20.3573 28.512 20.2975V20.2996Z" fill="#CA9FA9"></path>
  </g>
  <defs>
    <clipPath id="clip0_61_2540">
      <rect width="48" height="19.697" fill="white" transform="translate(0.542236 14)"></rect>
    </clipPath>
  </defs>
</svg>
