<?xml version="1.0" encoding="UTF-8"?>
<svg xmlns="http://www.w3.org/2000/svg" width="49" height="48" viewBox="0 0 49 48" fill="none">
  <g clip-path="url(#clip0_61_2585)">
    <path d="M22.2686 33.9916C22.0858 33.9916 21.903 33.9221 21.7639 33.7821C21.4849 33.5031 21.4849 33.0507 21.7639 32.7717L47.3233 7.21243C47.6023 6.93342 48.0546 6.93342 48.3336 7.21243C48.6126 7.49144 48.6126 7.94376 48.3336 8.22277L22.7733 33.7821C22.6343 33.9211 22.4515 33.9916 22.2686 33.9916Z" fill="#CA9FA9"></path>
    <path d="M32.4879 39.806C30.5101 39.806 28.5208 39.2908 26.7268 38.2338C26.3868 38.0338 26.2735 37.5958 26.4744 37.2559C26.6744 36.9159 27.1124 36.8035 27.4524 37.0035C31.3557 39.3032 36.3216 38.669 39.5288 35.4618L46.7668 28.2238C47.0459 27.9448 47.4982 27.9448 47.7772 28.2238C48.0562 28.5028 48.0562 28.9551 47.7772 29.2341L40.5391 36.4722C38.3452 38.6661 35.4313 39.8069 32.4888 39.8069L32.4879 39.806Z" fill="#CA9FA9"></path>
    <path d="M20.8839 41.9847C19.2118 41.9847 17.6396 41.3334 16.4579 40.1516L15.9256 39.6193C15.6466 39.3403 15.6466 38.888 15.9256 38.609L33.0041 21.5304C33.1384 21.3962 33.3193 21.3209 33.5088 21.3209C33.6983 21.3209 33.8802 21.3962 34.0135 21.5304L34.5458 22.0627C35.7285 23.2454 36.3789 24.8166 36.3789 26.4888C36.3789 28.1609 35.7276 29.7331 34.5458 30.9148L25.3109 40.1497C24.1282 41.3324 22.5561 41.9828 20.8839 41.9828V41.9847ZM17.4406 39.1146L17.4682 39.1423C18.3805 40.0545 19.5936 40.5573 20.8849 40.5573C22.1761 40.5573 23.3883 40.0545 24.3015 39.1423L33.5364 29.9073C34.4487 28.9951 34.9515 27.781 34.9515 26.4907C34.9515 25.2004 34.4487 23.9872 33.5364 23.074L33.5088 23.0464L17.4406 39.1146Z" fill="#CA9FA9"></path>
    <path d="M26.564 35.4351C26.3812 35.4351 26.1984 35.3656 26.0594 35.2257C25.7803 34.9466 25.7803 34.4943 26.0594 34.2153L29.3741 30.9005C29.6531 30.6215 30.1055 30.6215 30.3845 30.9005C30.6635 31.1795 30.6635 31.6319 30.3845 31.9109L27.0697 35.2257C26.9307 35.3647 26.7478 35.4351 26.565 35.4351H26.564Z" fill="#CA9FA9"></path>
    <path d="M24.8873 37.112C24.7045 37.112 24.5216 37.0425 24.3826 36.9025C24.1036 36.6235 24.1036 36.1712 24.3826 35.8922L24.7521 35.5227C25.0311 35.2437 25.4834 35.2437 25.7624 35.5227C26.0414 35.8017 26.0414 36.2541 25.7624 36.5331L25.3929 36.9025C25.2539 37.0416 25.0711 37.112 24.8882 37.112H24.8873Z" fill="#CA9FA9"></path>
    <path d="M19.6804 34.7343C18.8796 34.7343 18.1797 34.5553 17.6254 34.34C16.3847 33.8573 15.6133 33.0897 15.581 33.0574L6.46414 23.9405C6.18513 23.6615 6.18513 23.2092 6.46414 22.9302C6.74315 22.6512 7.19547 22.6512 7.47448 22.9302L16.5932 32.0489C16.6894 32.1442 18.9948 34.3724 21.9077 32.6612C22.2477 32.4613 22.6857 32.5755 22.8847 32.9155C23.0847 33.2554 22.9704 33.6935 22.6305 33.8934C21.5678 34.5181 20.5631 34.7352 19.6804 34.7352V34.7343Z" fill="#CA9FA9"></path>
    <path d="M18.8478 32.0242C18.7698 32.0242 18.6917 32.0242 18.6136 32.0223C16.0901 31.9908 14.1952 31.4804 14.1161 31.4585C13.7352 31.3547 13.5114 30.9615 13.6152 30.5815C13.719 30.2016 14.1114 29.9768 14.4923 30.0806C14.5637 30.0997 21.637 31.967 26.1211 28.4199C26.4306 28.1752 26.8801 28.2276 27.1248 28.537C27.3695 28.8465 27.3171 29.296 27.0077 29.5398C24.9508 31.1662 22.1341 32.0232 18.8488 32.0232L18.8478 32.0242Z" fill="#CA9FA9"></path>
    <path d="M2.82571 28.1619C2.81047 28.1619 2.79524 28.1619 2.77905 28.16C2.57432 28.1467 2.38482 28.0457 2.25912 27.8829L0.689816 25.8413C0.44985 25.5289 0.507937 25.0804 0.821227 24.8395C1.13452 24.5995 1.58207 24.6576 1.82299 24.9709L2.89618 26.3679L9.97615 19.2879L1.16785 12.5174C0.855508 12.2774 0.796468 11.8289 1.03643 11.5156C1.2764 11.2033 1.72491 11.1443 2.0382 11.3842L11.4921 18.6499C11.655 18.7756 11.7559 18.9641 11.7692 19.1698C11.7826 19.3755 11.7073 19.5755 11.5616 19.7212L3.3304 27.9534C3.19613 28.0876 3.01426 28.1629 2.82571 28.1629V28.1619Z" fill="#CA9FA9"></path>
  </g>
  <defs>
    <clipPath id="clip0_61_2585">
      <rect width="48" height="34.9876" fill="white" transform="translate(0.541992 7)"></rect>
    </clipPath>
  </defs>
</svg>
