<?xml version="1.0" encoding="UTF-8"?>
<svg xmlns="http://www.w3.org/2000/svg" width="49" height="48" viewBox="0 0 49 48" fill="none">
  <g clip-path="url(#clip0_61_2555)">
    <path d="M5.80371 14.6067L23.0271 11.5841" stroke="#CA9FA9" stroke-width="1.5" stroke-linecap="round" stroke-linejoin="round"></path>
    <path d="M1.54906 12.7144L4.79878 12.1314L5.34428 12.0348L5.44086 12.5785L6.16699 16.633L6.26536 17.1785L5.71986 17.2751L0.989258 18.1229" stroke="#CA9FA9" stroke-width="1.5" stroke-linecap="round" stroke-linejoin="round"></path>
    <path d="M21.6357 9.44861L22.4638 14.0701" stroke="#CA9FA9" stroke-width="1.5" stroke-linecap="round" stroke-linejoin="round"></path>
    <path d="M19.9668 9.74731L20.7949 14.3688" stroke="#CA9FA9" stroke-width="1.5" stroke-linecap="round" stroke-linejoin="round"></path>
    <path d="M18.3003 10.046L19.1266 14.6675" stroke="#CA9FA9" stroke-width="1.5" stroke-linecap="round" stroke-linejoin="round"></path>
    <path d="M16.6313 10.3447L17.4594 14.9662" stroke="#CA9FA9" stroke-width="1.5" stroke-linecap="round" stroke-linejoin="round"></path>
    <path d="M14.9644 10.6433L15.7906 15.2648" stroke="#CA9FA9" stroke-width="1.5" stroke-linecap="round" stroke-linejoin="round"></path>
    <path d="M13.2959 10.942L14.124 15.5635" stroke="#CA9FA9" stroke-width="1.5" stroke-linecap="round" stroke-linejoin="round"></path>
    <path d="M17.9834 26.6362C19.2461 26.2319 21.4388 25.4146 23.8998 25.3806C29.0847 25.3109 33.6078 28.2387 37.0775 30.274" stroke="#CA9FA9" stroke-width="1.5" stroke-linecap="round" stroke-linejoin="round"></path>
    <path d="M37.0796 30.3116C34.7402 33.6311 30.3834 35.8685 25.3809 35.8685C20.3785 35.8685 16.0217 33.6293 13.6841 30.3116" stroke="#CA9FA9" stroke-width="1.5" stroke-linecap="round" stroke-linejoin="round"></path>
    <path d="M16.1827 33.0999C15.5138 33.6543 14.4604 34.5503 13.7915 35.1066" stroke="#CA9FA9" stroke-width="1.5" stroke-linecap="round" stroke-linejoin="round"></path>
    <path d="M18.336 34.2856C18.1178 35.2514 16.7979 36.9648 16.7979 36.9648" stroke="#CA9FA9" stroke-width="1.5" stroke-linecap="round" stroke-linejoin="round"></path>
    <path d="M20.4873 35.2961C20.6822 36.0598 20.0974 37.2778 19.8291 38.02" stroke="#CA9FA9" stroke-width="1.5" stroke-linecap="round" stroke-linejoin="round"></path>
    <path d="M23.1235 35.822C22.8874 36.6232 23.1718 38.4403 23.1718 38.4403" stroke="#CA9FA9" stroke-width="1.5" stroke-linecap="round" stroke-linejoin="round"></path>
    <path d="M25.538 36.6572C25.538 36.4229 25.5416 36.1886 25.5434 35.9561C25.4843 36.6823 25.5738 37.7875 25.7133 38.503" stroke="#CA9FA9" stroke-width="1.5" stroke-linecap="round" stroke-linejoin="round"></path>
    <path d="M27.604 35.7343C27.9367 36.2262 28.3212 37.3422 28.3945 37.9306" stroke="#CA9FA9" stroke-width="1.5" stroke-linecap="round" stroke-linejoin="round"></path>
    <path d="M30.1509 35.1638C30.3297 35.8845 30.7017 36.7233 31.249 37.3153" stroke="#CA9FA9" stroke-width="1.5" stroke-linecap="round" stroke-linejoin="round"></path>
    <path d="M31.9341 34.7721C32.1988 35.3623 33.1234 36.0688 33.6224 36.4819" stroke="#CA9FA9" stroke-width="1.5" stroke-linecap="round" stroke-linejoin="round"></path>
    <path d="M33.7153 33.7705C34.1964 34.1658 35.1909 34.8561 35.672 35.2514" stroke="#CA9FA9" stroke-width="1.5" stroke-linecap="round" stroke-linejoin="round"></path>
    <path d="M35.3569 32.2753C35.7218 32.9961 36.8968 33.5291 37.6623 33.7866" stroke="#CA9FA9" stroke-width="1.5" stroke-linecap="round" stroke-linejoin="round"></path>
    <path d="M36.5376 31.1593C37.3228 31.7137 38.2331 32.3022 39.1846 32.4399" stroke="#CA9FA9" stroke-width="1.5" stroke-linecap="round" stroke-linejoin="round"></path>
    <path d="M14.3799 31.4204C13.6466 32.0017 12.8525 32.5042 12.0137 32.9174" stroke="#CA9FA9" stroke-width="1.5" stroke-linecap="round" stroke-linejoin="round"></path>
    <path d="M12.5448 20.0956C12.5448 20.0956 12.6503 20.0544 12.8506 19.9757C13.0563 19.8971 13.3585 19.7808 13.7413 19.6341C14.5139 19.3408 15.6264 18.9277 16.9713 18.4484C18.3163 17.969 19.8955 17.4271 21.6 16.887C22.4513 16.6169 23.3348 16.3487 24.2344 16.0929C25.1341 15.8371 26.0498 15.5957 26.9601 15.3864C27.8669 15.1772 28.7844 15.0001 29.6036 14.9161L29.7574 14.9L29.7949 14.8964C29.7198 14.8964 29.7806 14.8964 29.7681 14.8964H29.7788L29.8021 14.8946L29.8951 14.8892C30.0185 14.8821 30.1419 14.8749 30.2653 14.8678C30.3977 14.8588 30.4907 14.8588 30.5908 14.8552C30.6928 14.8517 30.7929 14.8481 30.8931 14.8463C31.1059 14.8463 31.3223 14.8463 31.5369 14.8517C31.7498 14.8624 31.9644 14.8642 32.1754 14.8839C33.0196 14.9429 33.8387 15.0609 34.6042 15.2255C35.3697 15.39 36.0815 15.5957 36.7272 15.8157C38.0149 16.261 39.0236 16.76 39.6943 17.132C40.365 17.5076 40.7048 17.7544 40.6869 17.7401C40.982 17.9851 41.4846 18.0048 41.8119 17.7848C42.1392 17.5648 42.166 17.1875 41.8727 16.9424C41.8638 16.9353 41.7744 16.853 41.6062 16.7099C41.4363 16.5686 41.1859 16.3665 40.8533 16.1233C40.5206 15.8801 40.1021 15.5957 39.596 15.2881C39.0898 14.9822 38.4996 14.6531 37.8146 14.3312C37.1314 14.0093 36.357 13.6909 35.4931 13.4083C34.6311 13.124 33.6778 12.8843 32.6565 12.7072C32.4026 12.659 32.1414 12.6286 31.8785 12.5892C31.6138 12.5552 31.3491 12.5284 31.0773 12.5016C30.9342 12.4908 30.7911 12.4819 30.648 12.4712C30.505 12.4622 30.3529 12.4497 30.2385 12.4461C30.1151 12.4408 29.9917 12.4354 29.8683 12.43L29.7752 12.4265H29.752H29.7413C29.7198 12.4265 29.7735 12.4265 29.6912 12.4265H29.4193C28.255 12.43 27.1819 12.5373 26.1249 12.6661C25.0697 12.7985 24.0413 12.9612 23.0397 13.1365C22.0382 13.3118 21.0634 13.5013 20.128 13.6945C18.2573 14.0808 16.5331 14.4761 15.0648 14.8302C13.5946 15.1843 12.3784 15.4955 11.5253 15.7191C11.0979 15.8318 10.7616 15.9212 10.5327 15.982C10.2984 16.0464 10.175 16.0804 10.175 16.0804C8.64938 16.4971 7.86423 17.7598 8.42045 18.9026C8.97668 20.0437 10.665 20.6321 12.1888 20.2172C12.3069 20.185 12.4213 20.1474 12.5304 20.1063L12.5465 20.0992L12.5448 20.0956Z" stroke="#CA9FA9" stroke-width="1.5" stroke-linecap="round" stroke-linejoin="round"></path>
    <path d="M36.0601 20.9952C36.1209 21.9324 36.7647 23.5206 37.8092 25.1642C39.2883 27.4911 42.7527 31.7853 43.3983 31.3739C44.044 30.9626 41.6277 26.0048 40.1468 23.678C39.1023 22.0361 37.938 20.7788 37.1153 20.3245" stroke="#CA9FA9" stroke-width="1.5" stroke-linecap="round" stroke-linejoin="round"></path>
    <path d="M37.8091 25.1642L48.0948 38.7605" stroke="#CA9FA9" stroke-width="1.5" stroke-linecap="round" stroke-linejoin="round"></path>
    <path d="M40.1484 23.678L48.0948 38.7605" stroke="#CA9FA9" stroke-width="1.5" stroke-linecap="round" stroke-linejoin="round"></path>
  </g>
  <defs>
    <clipPath id="clip0_61_2555">
      <rect width="48" height="30.2091" fill="white" transform="translate(0.541992 9)"></rect>
    </clipPath>
  </defs>
</svg>
